<?xml version="1.0" encoding="UTF-8" standalone="no"?>
<svg xmlns:dc="http://purl.org/dc/elements/1.1/" xmlns:cc="http://creativecommons.org/ns#" xmlns:rdf="http://www.w3.org/1999/02/22-rdf-syntax-ns#" xmlns:svg="http://www.w3.org/2000/svg" xmlns="http://www.w3.org/2000/svg" xmlns:sodipodi="http://sodipodi.sourceforge.net/DTD/sodipodi-0.dtd" xmlns:inkscape="http://www.inkscape.org/namespaces/inkscape" id="Layer_1" data-name="Layer 1" viewBox="0 0 55.63 20.88" version="1.1" sodipodi:docname="white.svg" inkscape:version="1.0.2 (e86c8708, 2021-01-15)">
  <metadata id="metadata126">
    <rdf:RDF>
      <cc:Work rdf:about="">
        <dc:format>image/svg+xml</dc:format>
        <dc:type rdf:resource="http://purl.org/dc/dcmitype/StillImage" />
      </cc:Work>
    </rdf:RDF>
  </metadata>
  <sodipodi:namedview pagecolor="#ffffff" bordercolor="#666666" borderopacity="1" objecttolerance="10" gridtolerance="10" guidetolerance="10" inkscape:pageopacity="0" inkscape:pageshadow="2" inkscape:window-width="1450" inkscape:window-height="876" id="namedview124" showgrid="false" inkscape:zoom="19.719576" inkscape:cx="18.053127" inkscape:cy="10.44" inkscape:window-x="0" inkscape:window-y="25" inkscape:window-maximized="0" inkscape:current-layer="Layer_1" />
  <defs id="defs89">
    <style id="style87">.cls-1{fill:#14499e;}</style>
  </defs>
  <title id="title91">fara blocuri_logo_netopiaArtboard 14</title>
  <path class="cls-1" d="M.33,16.08H2.75a1.68,1.68,0,0,1,1.19.38,1.42,1.42,0,0,1,.39,1.07,1.45,1.45,0,0,1-.43,1.12,1.85,1.85,0,0,1-1.31.4h-.8V20.8H.33Zm1.46,2h.36A.89.89,0,0,0,2.74,18a.49.49,0,0,0,.17-.38.51.51,0,0,0-.15-.37A.75.75,0,0,0,2.21,17H1.79Z" id="path93" style="fill:#ffffff;fill-opacity:1" />
  <path class="cls-1" d="M9.74,20H8.09l-.23.78H6.37l1.77-4.72H9.73L11.5,20.8H10Zm-.3-1-.52-1.69L8.4,19Z" id="path95" style="fill:#ffffff;fill-opacity:1" />
  <path class="cls-1" d="M13.24,16.08h1.62l1,1.6,1-1.6h1.61l-1.83,2.75v2H15.08v-2Z" id="path97" style="fill:#ffffff;fill-opacity:1" />
  <path class="cls-1" d="M21.13,16.08h1.92L23.79,19l.73-2.88h1.92V20.8h-1.2V17.2l-.92,3.6H23.24l-.91-3.6v3.6h-1.2Z" id="path99" style="fill:#ffffff;fill-opacity:1" />
  <path class="cls-1" d="M29.67,16.08h3.91v1H31.13v.75H33.4v1H31.13v.93h2.52V20.8h-4Z" id="path101" style="fill:#ffffff;fill-opacity:1" />
  <path class="cls-1" d="M36.75,16.08h1.36l1.78,2.61V16.08h1.37V20.8H39.89l-1.77-2.59V20.8H36.75Z" id="path103" style="fill:#ffffff;fill-opacity:1" />
  <path class="cls-1" d="M44.21,16.08h4.43v1.17H47.15V20.8H45.69V17.25H44.21Z" id="path105" style="fill:#ffffff;fill-opacity:1" />
  <path class="cls-1" d="M51.35,19.24l1.39-.09a1.09,1.09,0,0,0,.18.52.79.79,0,0,0,.65.29.73.73,0,0,0,.48-.15.45.45,0,0,0,.17-.34.47.47,0,0,0-.16-.33,1.93,1.93,0,0,0-.75-.27,3.36,3.36,0,0,1-1.37-.57,1.19,1.19,0,0,1-.41-.92,1.21,1.21,0,0,1,.21-.68,1.35,1.35,0,0,1,.63-.51A3,3,0,0,1,53.53,16a2.38,2.38,0,0,1,1.38.34,1.44,1.44,0,0,1,.57,1.07l-1.38.08a.68.68,0,0,0-.23-.46.69.69,0,0,0-.48-.15A.57.57,0,0,0,53,17a.32.32,0,0,0-.13.26.26.26,0,0,0,.1.21,1.25,1.25,0,0,0,.49.17,6.12,6.12,0,0,1,1.37.42,1.36,1.36,0,0,1,.6.52,1.29,1.29,0,0,1,.19.7,1.45,1.45,0,0,1-.25.83,1.62,1.62,0,0,1-.7.59,2.89,2.89,0,0,1-1.14.19,2.32,2.32,0,0,1-1.66-.46A1.82,1.82,0,0,1,51.35,19.24Z" id="path107" style="fill:#ffffff;fill-opacity:1" />
  <polygon class="cls-1" points="3.21 1.93 1.25 0.41 0 0.41 0 11.27 1.34 11.27 1.34 2.01 3.21 3.39 3.21 11.27 4.5 11.27 4.5 0.41 3.21 0.41 3.21 1.93" id="polygon109" style="fill:#ffffff;fill-opacity:1" />
  <polygon class="cls-1" points="12.14 4.26 11.59 3.01 9.72 3.01 9.72 1.58 11.71 1.58 11.71 0.41 8.49 0.41 8.49 3.12 7.59 3.12 8.04 4.2 8.49 4.2 8.49 11.27 11.77 11.27 11.77 10.04 9.75 10.04 9.75 4.26 12.14 4.26" id="polygon111" style="fill:#ffffff;fill-opacity:1" />
  <polygon class="cls-1" points="15.38 1.69 17.02 1.69 17.02 11.27 18.3 11.27 18.3 1.69 19.79 1.69 19.79 0.41 15.38 0.41 15.38 1.69" id="polygon113" style="fill:#ffffff;fill-opacity:1" />
  <rect class="cls-1" x="45.8" y="0.41" width="1.34" height="10.86" id="rect115" style="fill:#ffffff;fill-opacity:1" />
  <path class="cls-1" d="M53.37.41c-1.9,0-2,1.43-2,1.43V3H50.5l.41,1.25h.41v7h1.32v-7h1.57v7h1.2V1.84S55.26.41,53.37.41ZM54.24,3h-1.6V2.07s-.09-.52.67-.52.93.46.93.46Z" id="path117" style="fill:#ffffff;fill-opacity:1" />
  <path class="cls-1" d="M27.88,0A5.83,5.83,0,0,0,22,5.77a5.9,5.9,0,0,0,11.8,0A5.83,5.83,0,0,0,27.88,0Zm0,10.22a4.5,4.5,0,0,1-4.55-4.45,4.55,4.55,0,0,1,9.1,0A4.51,4.51,0,0,1,27.88,10.22Z" id="path119" style="fill:#ffffff;fill-opacity:1" />
  <path class="cls-1" d="M38.33.41H37.08V11.27h1.37v-2S42.68,9.05,42.68,5,38.33.41,38.33.41Zm.05,7.8V1.72A3.3,3.3,0,0,1,41.52,5C41.52,7.65,38.38,8.21,38.38,8.21Z" id="path121" style="fill:#ffffff;fill-opacity:1" />
</svg>
